<svg width="120" height="92" viewBox="0 0 120 92" fill="none" xmlns="http://www.w3.org/2000/svg">
<path fill-rule="evenodd" clip-rule="evenodd" d="M20.3123 1.16238C14.6123 4.36238 15.5123 7.96238 23.7123 15.6624C30.1123 21.5624 38.7123 32.4624 37.7123 33.3624C37.5123 33.4624 34.4123 35.1624 30.8123 37.0624C17.0123 44.3624 4.21234 61.7624 0.912338 77.7624C-0.787662 85.8624 -1.08766 85.4624 8.91234 87.3624C40.2123 93.3624 76.5123 93.5624 108.112 87.8624C121.712 85.3624 121.512 85.6624 117.712 73.3624C112.812 57.3624 104.212 46.1624 90.2123 37.6624C86.8123 35.6624 83.5123 33.9624 82.9123 33.9624C82.3123 33.9624 81.8123 33.5624 81.8123 33.0624C81.8123 31.0624 90.9123 19.9624 96.7123 14.9624C103.412 9.06238 104.512 5.66238 100.812 1.96238C97.6123 -1.23762 94.0123 -0.537622 89.5123 4.16238C85.3123 8.56238 74.4123 24.6624 73.3123 27.8624C72.8123 29.4624 71.5123 29.6624 60.2123 29.6624H47.7123L44.2123 23.5624C39.4123 15.4624 31.2123 4.46238 28.1123 1.96238C25.2123 -0.337619 23.2123 -0.537622 20.3123 1.16238Z" fill="black"/>
</svg>
